# xmcd
#
# Track frame offsets:
#	150
#	20692
#	56460
#	79092
#	96442
#	119380
#	152970
#	178425
#	205005
#	233530
#	252980
#	270665
#
# Disc length: 3925 seconds
#
# Revision: 0
# Processed by: cddbd v1.4PL0 Copyright (c) Steve Scherf et al.
# Submitted via: dBpowerAMP V4.0
#
DISCID=a30f530c
DTITLE=Lucky Peterson - Gitane Blues
DYEAR=1999
DGENRE=Blues
TTITLE0=I'm Ready
TTITLE1=Tribute To The King
TTITLE2=Who's Been Talking
TTITLE3=Pouring Money On A Drowning Love Affair
TTITLE4=Driving Wheel
TTITLE5=Beyond Cool
TTITLE6=Bad Condition
TTITLE7=Next In Line
TTITLE8=Junk Yard
TTITLE9=Let's Go Get Stoned
TTITLE10=Move
TTITLE11=Pickin'
EXTD=
EXTT0=
EXTT1=
EXTT2=
EXTT3=
EXTT4=
EXTT5=
EXTT6=
EXTT7=
EXTT8=
EXTT9=
EXTT10=
EXTT11=
PLAYORDER=
